<svg width="53" height="53" viewBox="0 0 53 53" fill="none" xmlns="http://www.w3.org/2000/svg">
<g filter="url(#filter0_d)">
<circle cx="26.5" cy="22.5" r="22.5" fill="#FB7AFC"/>
</g>
<path d="M25.7619 27.5238C26.9667 27.5238 27.9524 26.5381 27.9524 25.3333C27.9524 24.1286 26.9667 23.1428 25.7619 23.1428C24.5572 23.1428 23.5715 24.1286 23.5715 25.3333C23.5715 26.5381 24.5572 27.5238 25.7619 27.5238Z" fill="black"/>
<path d="M32.3334 17.6667H31.2381V15.4762C31.2381 12.4533 28.7848 10 25.7619 10C22.7391 10 20.2857 12.4533 20.2857 15.4762V17.6667H19.1905C17.9857 17.6667 17 18.6524 17 19.8572V30.8096C17 32.0143 17.9857 33 19.1905 33H32.3333C33.5381 33 34.5238 32.0143 34.5238 30.8096V19.8572C34.5238 18.6524 33.5381 17.6667 32.3334 17.6667ZM22.3667 15.4762C22.3667 13.6034 23.8891 12.081 25.7619 12.081C27.6348 12.081 29.1572 13.6034 29.1572 15.4762V17.6667H22.3667V15.4762ZM32.3334 30.8095H19.1905V19.8571H32.3333V30.8095H32.3334Z" fill="black"/>
<defs>
<filter id="filter0_d" x="0" y="0" width="53" height="53" filterUnits="userSpaceOnUse" color-interpolation-filters="sRGB">
<feFlood flood-opacity="0" result="BackgroundImageFix"/>
<feColorMatrix in="SourceAlpha" type="matrix" values="0 0 0 0 0 0 0 0 0 0 0 0 0 0 0 0 0 0 127 0"/>
<feOffset dy="4"/>
<feGaussianBlur stdDeviation="2"/>
<feColorMatrix type="matrix" values="0 0 0 0 0 0 0 0 0 0 0 0 0 0 0 0 0 0 0.25 0"/>
<feBlend mode="normal" in2="BackgroundImageFix" result="effect1_dropShadow"/>
<feBlend mode="normal" in="SourceGraphic" in2="effect1_dropShadow" result="shape"/>
</filter>
</defs>
</svg>
